<?xml version="1.0" encoding="utf-8"?>
<!-- Generator: Adobe Illustrator 17.1.0, SVG Export Plug-In . SVG Version: 6.00 Build 0)  -->
<!DOCTYPE svg PUBLIC "-//W3C//DTD SVG 1.1//EN" "http://www.w3.org/Graphics/SVG/1.1/DTD/svg11.dtd">
<svg version="1.1" id="レイヤー_1" xmlns="http://www.w3.org/2000/svg" xmlns:xlink="http://www.w3.org/1999/xlink" x="0px"
	 y="0px" viewBox="-10 -10 60 60" enable-background="new 0 0 40 40" xml:space="preserve">
<path
     d="M 9.2,18.7 4.7,18 c -0.1,0 -0.2,0.1 -0.2,0.2 -0.2,1.2 -0.2,2.6 0,3.8 0,0.1 0.1,0.2 0.2,0.2 l 4.5,-0.6 c 0.1,0 0.2,-0.1 0.2,-0.2 C 9.3,20.5 9.3,19.7 9.4,18.8 9.3,18.7 9.3,18.7 9.2,18.7 Z"
     id="path2"
     style="fill:#97acb3" />
<path
     d="M 11.4,13.3 7.8,10.5 c -0.1,-0.1 -0.2,-0.1 -0.2,0.1 -0.8,1 -1.4,2.2 -1.9,3.3 -0.1,0.1 0,0.2 0.1,0.2 l 4.3,1.8 c 0.1,0.1 0.2,0 0.2,-0.1 0.3,-0.8 0.8,-1.5 1.3,-2.2 -0.1,-0.1 -0.1,-0.2 -0.2,-0.3 z"
     id="path4"
     style="fill:#97acb3" />
<path
     d="m 9.9,24.4 -4.3,1.7 c -0.1,0.1 -0.2,0.2 -0.1,0.2 0.5,1.2 1.2,2.2 1.9,3.3 0.1,0.1 0.2,0.1 0.2,0.1 l 3.6,-2.8 c 0.1,-0.1 0.1,-0.2 0.1,-0.2 -0.5,-0.7 -0.9,-1.5 -1.2,-2.2 0,-0.1 -0.1,-0.2 -0.2,-0.1 z"
     id="path6"
     style="fill:#97acb3" />
<path
     d="m 31.6,21.5 4.5,0.6 c 0.1,0 0.2,-0.1 0.2,-0.2 0.2,-1.2 0.2,-2.6 0,-3.8 0,-0.1 -0.1,-0.2 -0.2,-0.2 l -4.5,0.6 c -0.1,0 -0.2,0.1 -0.2,0.2 0.1,0.9 0.1,1.7 0,2.6 0,0.2 0.1,0.2 0.2,0.2 z"
     id="path8"
     style="fill:#97acb3" />
<path
     d="m 29.4,26.9 3.6,2.8 c 0.1,0.1 0.2,0.1 0.2,-0.1 0.8,-1 1.4,-2.2 1.9,-3.3 0.1,-0.1 0,-0.2 -0.1,-0.2 l -4.3,-1.7 c -0.1,-0.1 -0.2,0 -0.2,0.1 -0.3,0.8 -0.8,1.5 -1.3,2.2 0.1,0.1 0.1,0.2 0.2,0.2 z"
     id="path10"
     style="fill:#97acb3" />
<path
     d="m 30.8,15.9 4.3,-1.7 C 35.2,14.1 35.3,14 35.2,14 34.7,12.8 34,11.8 33.3,10.7 33.2,10.6 33.1,10.6 33.1,10.6 l -3.6,2.8 c -0.1,0.1 -0.1,0.2 -0.1,0.2 0.5,0.7 0.9,1.5 1.3,2.2 -0.1,0.1 0,0.1 0.1,0.1 z"
     id="path12"
     style="fill:#97acb3" />
</svg>
